<?xml version="1.0" standalone="no"?>
<!DOCTYPE svg PUBLIC "-//W3C//DTD SVG 20010904//EN"
 "http://www.w3.org/TR/2001/REC-SVG-20010904/DTD/svg10.dtd">
<svg version="1.0" xmlns="http://www.w3.org/2000/svg"
 width="512.000000pt" height="512.000000pt" viewBox="0 0 512.000000 512.000000"
 preserveAspectRatio="xMidYMid meet">

<g transform="translate(0.000000,512.000000) scale(0.100000,-0.100000)"
fill="#000000" stroke="none">
<path d="M0 2560 l0 -2560 2560 0 2560 0 0 2560 0 2560 -2560 0 -2560 0 0
-2560z m1964 1335 c73 -38 173 -76 301 -115 150 -45 493 -58 680 -26 198 34
326 79 465 163 30 18 65 33 77 33 25 0 27 -17 40 -325 l8 -180 34 0 c29 0 36
4 44 30 16 50 27 58 75 52 25 -3 47 -9 51 -14 3 -6 16 -15 29 -22 12 -6 22
-16 22 -22 0 -6 7 -17 15 -25 8 -9 15 -24 15 -34 0 -10 5 -22 10 -25 12 -7 13
-92 2 -99 -5 -3 -12 -51 -16 -108 -3 -56 -10 -105 -15 -108 -5 -3 -12 -26 -16
-52 -4 -27 -11 -48 -15 -48 -4 0 -11 -12 -14 -26 -4 -14 -11 -31 -16 -37 -5
-7 -22 -27 -37 -45 -34 -43 -95 -82 -128 -82 -21 0 -27 -7 -37 -45 -7 -25 -15
-45 -19 -45 -4 0 -10 -16 -13 -35 -9 -46 -33 -58 -88 -45 -70 17 -483 25 -551
11 -67 -14 -117 -51 -117 -87 0 -68 207 -184 460 -259 30 -9 68 -22 83 -28
l28 -12 2 -154 2 -154 40 -23 c22 -13 48 -23 58 -24 9 0 17 -4 17 -10 0 -5 16
-12 35 -16 19 -3 35 -10 35 -15 0 -5 9 -9 19 -9 11 0 22 -4 26 -10 3 -5 12 -7
20 -3 8 3 15 0 15 -6 0 -6 6 -11 14 -11 7 0 27 -7 42 -15 16 -8 37 -15 47 -15
9 0 17 -7 17 -15 0 -8 -7 -15 -15 -15 -8 0 -15 4 -15 9 0 5 -20 12 -45 15 -25
4 -45 11 -45 16 0 5 -20 12 -45 16 -25 3 -45 10 -45 15 0 5 -11 9 -25 9 -16 0
-25 -6 -25 -15 0 -8 -4 -15 -8 -15 -16 0 -61 -107 -67 -160 -5 -49 -10 -58
-44 -82 -21 -15 -44 -28 -51 -30 -16 -4 -25 -16 -181 -248 -113 -169 -174
-253 -181 -249 -4 3 -138 -11 -163 -17 -15 -3 -23 3 -32 23 -7 15 -13 34 -13
43 0 9 -4 20 -9 26 -5 5 -13 31 -19 58 l-10 50 54 60 c30 34 54 66 54 71 0 6
-44 55 -99 109 l-99 98 -7 -72 c-5 -52 -10 -69 -18 -61 -6 6 -29 11 -52 11
-33 0 -47 -8 -82 -41 -24 -22 -43 -42 -43 -45 0 -3 25 -33 55 -67 53 -59 68
-98 47 -123 -5 -5 -15 -29 -22 -54 -8 -25 -17 -50 -22 -56 -4 -6 -7 -28 -5
-50 1 -28 -2 -38 -12 -36 -15 3 -41 -16 -41 -29 0 -5 16 -9 35 -9 32 0 35 2
35 30 0 19 7 33 19 40 29 15 31 13 31 -30 0 -33 3 -40 20 -40 13 0 20 -7 20
-20 0 -13 -7 -20 -20 -20 -18 0 -20 -7 -20 -74 0 -65 2 -74 20 -79 34 -9 24
-37 -13 -37 -50 0 -57 14 -57 107 l0 83 -35 0 -35 0 0 -95 c0 -95 0 -95 -25
-95 -25 0 -25 0 -25 95 0 78 -3 95 -15 95 -8 0 -15 9 -15 20 0 11 7 20 15 20
8 0 15 9 15 21 0 40 19 59 58 60 l37 1 -35 8 c-19 5 -62 12 -95 15 l-61 7 -74
106 c-41 58 -91 131 -110 162 -19 30 -38 57 -42 58 -4 2 -8 8 -8 14 0 5 -6 16
-12 23 -7 8 -29 37 -48 64 -19 27 -38 47 -42 45 -4 -2 -29 9 -56 26 l-50 30
-7 81 c-6 71 -12 88 -44 134 -33 50 -50 59 -76 43 -6 -3 -27 -9 -48 -13 -20
-4 -37 -11 -37 -15 0 -4 -20 -11 -45 -14 -25 -4 -45 -11 -45 -17 0 -5 -9 -9
-20 -9 -11 0 -20 7 -20 15 0 8 7 15 16 15 9 0 31 7 50 15 19 8 49 22 68 30 19
8 41 15 50 15 9 0 16 4 16 9 0 5 18 12 40 16 22 4 40 10 40 13 0 4 25 18 55
31 l55 25 0 148 c0 81 -4 148 -9 148 -5 0 -11 18 -15 40 -3 22 -11 40 -16 40
-6 0 -10 6 -10 14 0 7 -7 27 -15 42 -8 16 -15 37 -15 47 0 9 -4 17 -9 17 -5 0
-12 18 -16 40 -4 22 -11 40 -16 40 -5 0 -9 8 -9 18 0 9 -11 38 -24 64 -13 25
-27 59 -30 75 -4 15 -11 30 -15 33 -4 3 -11 23 -16 45 -7 28 -16 41 -30 43
-71 11 -159 91 -187 169 -7 18 -15 33 -19 33 -4 0 -10 21 -14 48 -4 26 -12 50
-18 54 -8 5 -12 63 -12 181 0 179 -1 173 42 219 30 32 47 40 91 41 44 2 47 1
70 -40 24 -45 58 -57 80 -30 6 7 11 80 11 177 1 91 4 202 7 247 l7 82 53 28
c29 15 50 31 48 35 -3 5 24 -12 59 -37 36 -25 104 -65 151 -90z m-524 -2155
c0 -5 -9 -10 -19 -10 -11 0 -23 -5 -26 -10 -4 -6 -11 -8 -16 -5 -16 10 -10 23
14 28 39 8 47 7 47 -3z m2320 0 c0 -5 -9 -10 -20 -10 -11 0 -20 5 -20 10 0 6
9 10 20 10 11 0 20 -4 20 -10z m35 -10 c3 -5 -1 -10 -9 -10 -9 0 -16 5 -16 10
0 6 4 10 9 10 6 0 13 -4 16 -10z m-2435 -20 c0 -5 -9 -10 -19 -10 -11 0 -26
-3 -35 -6 -9 -3 -16 -1 -16 6 0 6 4 9 8 6 4 -2 14 -1 22 5 20 12 40 11 40 -1z
m2480 6 c0 -11 -19 -15 -25 -6 -3 5 1 10 9 10 9 0 16 -2 16 -4z m35 -16 c3 -5
-1 -10 -10 -10 -9 0 -13 5 -10 10 3 6 8 10 10 10 2 0 7 -4 10 -10z m-2605 -14
c0 -3 -4 -8 -10 -11 -5 -3 -10 -1 -10 4 0 6 5 11 10 11 6 0 10 -2 10 -4z
m2645 -6 c3 -5 1 -10 -4 -10 -6 0 -11 5 -11 10 0 6 2 10 4 10 3 0 8 -4 11 -10z
m-2685 -10 c0 -5 -5 -10 -11 -10 -5 0 -7 5 -4 10 3 6 8 10 11 10 2 0 4 -4 4
-10z m2730 -6 c0 -2 -7 -4 -15 -4 -8 0 -15 4 -15 10 0 5 7 7 15 4 8 -4 15 -8
15 -10z m-1230 -721 c0 -37 3 -44 12 -35 13 13 66 16 93 6 26 -10 45 -60 45
-119 0 -49 -4 -60 -29 -86 -32 -31 -86 -40 -109 -17 -9 9 -12 9 -12 0 0 -7
-11 -12 -25 -12 l-25 0 0 155 0 155 25 0 c23 0 25 -4 25 -47z m-850 -50 c11
-14 19 -31 17 -37 -7 -20 -39 -18 -53 3 -19 26 -38 27 -64 1 -40 -40 -15 -140
34 -140 8 0 24 12 35 26 23 30 58 29 53 -1 -5 -34 -49 -65 -91 -65 -69 0 -111
70 -95 155 9 52 48 85 100 85 34 0 47 -5 64 -27z m178 19 c22 -14 3 -44 -24
-38 -34 9 -44 -18 -44 -113 0 -80 0 -81 -25 -81 l-25 0 0 116 0 116 25 -4 c14
-3 28 -1 31 3 7 11 45 11 62 1z m190 -9 c17 -15 21 -33 25 -120 4 -94 2 -103
-14 -103 -10 0 -21 5 -24 10 -4 7 -12 7 -25 0 -10 -5 -37 -10 -59 -10 -69 0
-106 65 -61 110 19 19 31 23 103 35 40 6 45 15 21 39 -21 22 -50 20 -74 -4
-24 -24 -48 -26 -57 -3 -4 10 3 24 21 40 34 29 113 32 144 6z m823 7 c43 -24
63 -117 37 -175 -27 -60 -120 -74 -169 -26 -26 26 -29 36 -29 91 0 55 3 65 29
91 23 23 38 29 71 29 23 0 50 -5 61 -10z m238 -11 c12 -11 20 -26 18 -32 -6
-19 -37 -20 -57 -2 -13 12 -28 15 -45 11 -41 -10 -29 -31 30 -50 63 -20 90
-50 79 -90 -9 -37 -41 -56 -94 -56 -48 1 -70 12 -88 47 -10 19 -9 23 9 28 14
5 27 0 40 -14 23 -24 61 -27 79 -6 16 20 5 33 -34 41 -58 10 -96 40 -96 74 0
46 31 70 88 70 35 0 54 -6 71 -21z m209 5 c45 -31 14 -69 -32 -39 -28 19 -80
13 -73 -8 2 -7 27 -20 56 -29 69 -22 81 -33 81 -73 0 -71 -112 -104 -166 -50
-14 14 -24 31 -21 38 6 20 35 19 56 -2 25 -25 50 -27 77 -7 24 19 13 29 -49
46 -47 13 -87 48 -87 77 0 8 11 25 25 38 29 30 97 34 133 9z"/>
<path d="M1890 3600 c-90 -24 -115 -36 -167 -73 -62 -44 -83 -89 -83 -176 0
-190 94 -358 221 -395 146 -44 325 15 453 149 65 69 109 157 131 267 8 42 55
62 142 62 71 -1 120 -18 127 -47 2 -7 9 -34 15 -62 42 -175 207 -334 390 -375
64 -15 167 -7 216 15 110 53 184 203 186 378 2 95 -10 127 -65 175 -45 39
-105 66 -194 86 -61 14 -155 16 -689 15 -561 -1 -624 -2 -683 -19z m880 -45
c0 -8 -4 -15 -9 -15 -5 0 -19 -15 -31 -34 -19 -32 -23 -34 -53 -25 -42 13
-143 12 -186 0 -36 -11 -51 -7 -51 13 0 7 -11 23 -25 36 -14 13 -25 27 -25 32
0 4 86 8 190 8 162 0 190 -2 190 -15z"/>
<path d="M2760 867 c-44 -22 -47 -106 -4 -134 22 -14 26 -14 48 1 65 42 24
167 -44 133z"/>
<path d="M2143 770 c-31 -13 -29 -38 3 -46 26 -7 73 19 82 44 4 14 -52 15 -85
2z"/>
<path d="M2975 855 c-16 -15 -25 -36 -25 -55 0 -19 9 -40 25 -55 28 -29 42
-31 73 -9 45 31 19 144 -33 144 -9 0 -27 -11 -40 -25z"/>
</g>
</svg>
